# xmcd
# Copyright (C) 1995-1998 Ti Kan
#
# Track frame offsets:
#       150
#       108225
#       215857
#
# Disc length: 4467 seconds
#
# Revision: 0
# Processed by: cddbd v1.5.2PL0 Copyright (c) Steve Scherf et al.
# Submitted via: CD-Transfer v1.0
#
DISCID=27117103
DTITLE=Tibetan Incanatations - 
DYEAR=1900
DGENRE=
TTITLE0=Om Mani Padme Hum
TTITLE1=Mantra Of Avalokiteshvara
TTITLE2=Om Mani Padme Hum (Alternate Version)
EXTD=
EXTT0=
EXTT1=
EXTT2=
PLAYORDER=
